<?xml version="1.0" encoding="UTF-8" standalone="no"?>
<!-- Created with Inkscape (http://www.inkscape.org/) -->

<svg
   xmlns:dc="http://purl.org/dc/elements/1.1/"
   xmlns:cc="http://creativecommons.org/ns#"
   xmlns:rdf="http://www.w3.org/1999/02/22-rdf-syntax-ns#"
   xmlns:svg="http://www.w3.org/2000/svg"
   xmlns="http://www.w3.org/2000/svg"
   xmlns:sodipodi="http://sodipodi.sourceforge.net/DTD/sodipodi-0.dtd"
   xmlns:inkscape="http://www.inkscape.org/namespaces/inkscape"
   width="450"
   height="300"
   id="svg3790"
   version="1.1"
   inkscape:version="0.47pre4 r22446"
   sodipodi:docname="logoPRHLT-3.svg">
  <defs
     id="defs3792">
    <inkscape:perspective
       sodipodi:type="inkscape:persp3d"
       inkscape:vp_x="0 : 526.18109 : 1"
       inkscape:vp_y="0 : 1000 : 0"
       inkscape:vp_z="744.09448 : 526.18109 : 1"
       inkscape:persp3d-origin="372.04724 : 350.78739 : 1"
       id="perspective3798" />
    <inkscape:perspective
       id="perspective3777"
       inkscape:persp3d-origin="0.5 : 0.33333333 : 1"
       inkscape:vp_z="1 : 0.5 : 1"
       inkscape:vp_y="0 : 1000 : 0"
       inkscape:vp_x="0 : 0.5 : 1"
       sodipodi:type="inkscape:persp3d" />
    <inkscape:perspective
       id="perspective3873"
       inkscape:persp3d-origin="0.5 : 0.33333333 : 1"
       inkscape:vp_z="1 : 0.5 : 1"
       inkscape:vp_y="0 : 1000 : 0"
       inkscape:vp_x="0 : 0.5 : 1"
       sodipodi:type="inkscape:persp3d" />
    <inkscape:perspective
       id="perspective5452"
       inkscape:persp3d-origin="0.5 : 0.33333333 : 1"
       inkscape:vp_z="1 : 0.5 : 1"
       inkscape:vp_y="0 : 1000 : 0"
       inkscape:vp_x="0 : 0.5 : 1"
       sodipodi:type="inkscape:persp3d" />
    <inkscape:perspective
       id="perspective6508"
       inkscape:persp3d-origin="0.5 : 0.33333333 : 1"
       inkscape:vp_z="1 : 0.5 : 1"
       inkscape:vp_y="0 : 1000 : 0"
       inkscape:vp_x="0 : 0.5 : 1"
       sodipodi:type="inkscape:persp3d" />
    <inkscape:perspective
       id="perspective6550"
       inkscape:persp3d-origin="0.5 : 0.33333333 : 1"
       inkscape:vp_z="1 : 0.5 : 1"
       inkscape:vp_y="0 : 1000 : 0"
       inkscape:vp_x="0 : 0.5 : 1"
       sodipodi:type="inkscape:persp3d" />
  </defs>
  <sodipodi:namedview
     id="base"
     pagecolor="#ffffff"
     bordercolor="#666666"
     borderopacity="1.0"
     inkscape:pageopacity="0.0"
     inkscape:pageshadow="2"
     inkscape:zoom="0.98994949"
     inkscape:cx="-67.379549"
     inkscape:cy="95.735677"
     inkscape:document-units="px"
     inkscape:current-layer="layer1"
     showgrid="false"
     inkscape:window-width="1920"
     inkscape:window-height="1125"
     inkscape:window-x="0"
     inkscape:window-y="25"
     inkscape:window-maximized="1" />
  <metadata
     id="metadata3795">
    <rdf:RDF>
      <cc:Work
         rdf:about="">
        <dc:format>image/svg+xml</dc:format>
        <dc:type
           rdf:resource="http://purl.org/dc/dcmitype/StillImage" />
        <dc:title></dc:title>
      </cc:Work>
    </rdf:RDF>
  </metadata>
  <g
     inkscape:label="Layer 1"
     inkscape:groupmode="layer"
     id="layer1"
     transform="translate(0,-752.36218)">
    <path
       style="fill:#91b9d4;fill-opacity:1;stroke:none"
       d="m 224.9846,755.61218 c -123.0806,0 -222.8437,65.2117 -222.8437,145.6875 0,0.343 0.028,0.6888 0.031,1.0313 28.2118,-60.5177 117.2801,-104.7188 222.8125,-104.7188 105.5544,0 194.6514,44.213 222.8437,104.75 0,-0.3528 0.031,-0.7091 0.031,-1.0625 0,-80.4758 -99.7944,-145.6875 -222.875,-145.6875 z"
       id="path6240" />
    <path
       id="path6242"
       d="m 224.9846,1049.1122 c -123.0806,0 -222.8437,-65.21172 -222.8437,-145.68752 0,-0.343 0.028,-0.6888 0.031,-1.0313 28.2118,60.5177 117.2801,104.71882 222.8125,104.71882 105.5544,0 194.6514,-44.21302 222.8437,-104.75002 0,0.3528 0.031,0.7091 0.031,1.0625 0,80.4758 -99.7944,145.68752 -222.875,145.68752 z"
       style="fill:#91b9d4;fill-opacity:1;stroke:none" />
    <path
       id="path6244"
       d="m 225.0159,797.60078 c -112.4231,0 -205.6556,45.3778 -222.8501,104.7623 17.2102,59.3744 110.4401,104.76222 222.8501,104.76222 112.41,0 205.6082,-45.38782 222.8183,-104.76222 -17.1945,-59.3845 -110.3953,-104.7623 -222.8183,-104.7623 z"
       style="fill:#ffffff;fill-opacity:1;stroke:none" />
    <path
       inkscape:export-ydpi="71.95369"
       inkscape:export-xdpi="71.95369"
       inkscape:export-filename="/home/luileito/Desktop/prhlt-2-1.png"
       id="path6248"
       style="font-size:114px;font-style:normal;font-weight:normal;fill:#286ea0;fill-opacity:1;stroke:none;font-family:Vipnagorgialla;-inkscape-font-specification:Vipnagorgialla"
       d="m 127.82007,900.25989 c 0,4.1029 -0.8739,7.1424 -2.6214,9.1185 -1.7477,1.9761 -4.6358,3.2691 -8.6645,3.8791 -2.3565,0.3038 -5.8146,0.4557 -10.3743,0.4557 l -24.3948,0 0,18.3518 -21.54549,0 0,-56.4295 45.94029,0 c 3.9521,10e-5 7.1829,0.152 9.6924,0.4558 4.3302,0.6077 7.4074,1.8619 9.2316,3.7625 1.8241,1.9008 2.7362,4.9791 2.7362,9.235 z m -21.4306,-7.4103 c -1e-4,-1.6722 -0.646,-2.6219 -1.9378,-2.8493 l -22.6866,0 0,9.3481 18.3552,0 c 3.3421,0 5.2225,-0.2278 5.6412,-0.6836 0.4186,-0.4557 0.6279,-2.3941 0.628,-5.8152 z" />
    <path
       inkscape:export-ydpi="71.95369"
       inkscape:export-xdpi="71.95369"
       inkscape:export-filename="/home/luileito/Desktop/prhlt-2-1.png"
       id="path6250"
       style="font-size:114px;font-style:normal;font-weight:normal;fill:#286ea0;fill-opacity:1;stroke:none;font-family:Vipnagorgialla;-inkscape-font-specification:Vipnagorgialla"
       d="m 203.7522,932.06499 -21.4306,0 0,-14.4762 c -1e-4,-2.5837 -2.091,-3.8756 -6.2727,-3.8756 l -18.3517,0 0,18.3518 -21.54553,0 0,-56.4295 45.94023,0 c 4.7129,10e-5 8.3995,0.2285 11.0598,0.6854 3.8755,0.6842 6.6112,2.0144 8.207,3.9904 1.5956,1.9761 2.3934,4.902 2.3935,8.7775 l 0,11.1711 c -10e-5,2.7369 -1.4438,4.8648 -4.3313,6.384 2.8875,1.1388 4.3312,3.1902 4.3313,6.1543 z m -21.4306,-39.2154 c -1e-4,-1.6722 -0.6472,-2.6219 -1.9413,-2.8493 l -22.6831,0 0,9.3481 18.3517,0 c 3.3444,0 5.226,-0.2278 5.6447,-0.6836 0.4186,-0.4557 0.6279,-2.3941 0.628,-5.8152 z" />
    <path
       inkscape:export-ydpi="71.95369"
       inkscape:export-xdpi="71.95369"
       inkscape:export-filename="/home/luileito/Desktop/prhlt-2-1.png"
       id="path6252"
       style="font-size:114px;font-style:normal;font-weight:normal;fill:#286ea0;fill-opacity:1;stroke:none;font-family:Vipnagorgialla;-inkscape-font-specification:Vipnagorgialla"
       d="m 279.7991,875.63549 0,56.4295 -21.5455,0 0,-21.0898 -24.5095,0 0,21.0898 -21.6603,0 0,-56.4295 21.6603,0 0,20.9749 24.5095,0 0,-20.9749 z" />
    <path
       inkscape:export-ydpi="71.95369"
       inkscape:export-xdpi="71.95369"
       inkscape:export-filename="/home/luileito/Desktop/prhlt-2-1.png"
       id="path6254"
       style="font-size:114px;font-style:normal;font-weight:normal;fill:#286ea0;fill-opacity:1;stroke:none;font-family:Vipnagorgialla;-inkscape-font-specification:Vipnagorgialla"
       d="m 338.9763,917.70019 0,14.3648 -50.8456,0 0,-56.6556 21.6603,0 0,42.2908 z" />
    <path
       inkscape:export-ydpi="71.95369"
       inkscape:export-xdpi="71.95369"
       inkscape:export-filename="/home/luileito/Desktop/prhlt-2-1.png"
       id="path6256"
       style="font-size:114px;font-style:normal;font-weight:normal;fill:#286ea0;fill-opacity:1;stroke:none;font-family:Vipnagorgialla;-inkscape-font-specification:Vipnagorgialla"
       d="m 389.7804,889.88549 -21.3194,0 0,42.1795 -21.5454,0 0,-42.1795 -19.6077,0 0,-14.4761 62.4725,0 z" />
  </g>
</svg>
