<?xml version="1.0" encoding="UTF-8"?>
<!-- Generator: Adobe Illustrator 16.0.4, SVG Export Plug-In . SVG Version: 6.00 Build 0)  -->
<!DOCTYPE svg PUBLIC "-//W3C//DTD SVG 1.1//EN" "http://www.w3.org/Graphics/SVG/1.1/DTD/svg11.dtd">
<svg version="1.1" id="Layer_1" xmlns="http://www.w3.org/2000/svg" xmlns:xlink="http://www.w3.org/1999/xlink" x="0px" y="0px" width="417.395px" height="64.954px" viewBox="0 0 417.395 64.954" enable-background="new 0 0 417.395 64.954" xml:space="preserve">
<g>
	<g>
		<path fill="#286EA2" d="M61.795,5.497c0,1.573-0.491,2.775-1.474,3.608c-0.983,0.833-2.381,1.25-4.192,1.25H54.8v5.197h-3.099    V0.939h4.667c1.772,0,3.12,0.382,4.043,1.145C61.334,2.847,61.795,3.984,61.795,5.497z M54.8,7.815h1.019    c0.953,0,1.666-0.188,2.139-0.564c0.474-0.376,0.71-0.925,0.71-1.644c0-0.726-0.198-1.263-0.595-1.609    c-0.396-0.346-1.018-0.52-1.864-0.52H54.8V7.815z"/>
		<path fill="#286EA2" d="M71.409,15.551l-0.589-1.519h-0.08c-0.514,0.646-1.041,1.094-1.584,1.344    c-0.543,0.25-1.251,0.375-2.124,0.375c-1.073,0-1.917-0.306-2.533-0.919c-0.616-0.613-0.925-1.485-0.925-2.618    c0-1.186,0.415-2.061,1.244-2.624c0.83-0.563,2.08-0.875,3.753-0.935l1.938-0.061v-0.49c0-1.133-0.579-1.699-1.738-1.699    c-0.894,0-1.942,0.27-3.148,0.81l-1.01-2.059c1.286-0.673,2.712-1.01,4.278-1.01c1.499,0,2.647,0.327,3.447,0.979    c0.8,0.653,1.199,1.646,1.199,2.979v7.445L71.409,15.551L71.409,15.551z M70.51,10.374l-1.179,0.04    c-0.887,0.026-1.546,0.187-1.979,0.479c-0.434,0.293-0.65,0.74-0.65,1.339c0,0.859,0.493,1.289,1.479,1.289    c0.706,0,1.271-0.203,1.694-0.609c0.423-0.407,0.634-0.946,0.634-1.619L70.51,10.374L70.51,10.374z"/>
		<path fill="#286EA2" d="M81.384,13.322c0.532,0,1.172-0.117,1.918-0.35v2.269c-0.759,0.339-1.692,0.509-2.798,0.509    c-1.22,0-2.107-0.308-2.663-0.924c-0.557-0.616-0.835-1.541-0.835-2.773V6.666h-1.459V5.377l1.679-1.02l0.88-2.358h1.948v2.378    h3.129v2.289h-3.129v5.387c0,0.433,0.122,0.753,0.365,0.959C80.662,13.218,80.983,13.322,81.384,13.322z"/>
		<path fill="#286EA2" d="M90.269,13.322c0.532,0,1.172-0.117,1.918-0.35v2.269c-0.759,0.339-1.692,0.509-2.798,0.509    c-1.22,0-2.107-0.308-2.663-0.924c-0.557-0.616-0.835-1.541-0.835-2.773V6.666h-1.459V5.377l1.679-1.02l0.88-2.358h1.948v2.378    h3.129v2.289h-3.129v5.387c0,0.433,0.122,0.753,0.365,0.959C89.547,13.218,89.868,13.322,90.269,13.322z"/>
		<path fill="#286EA2" d="M99.503,15.75c-1.799,0-3.205-0.496-4.218-1.489c-1.013-0.993-1.519-2.399-1.519-4.218    c0-1.872,0.468-3.319,1.403-4.342c0.937-1.022,2.23-1.534,3.883-1.534c1.579,0,2.809,0.45,3.688,1.349    c0.879,0.9,1.318,2.143,1.318,3.728v1.479h-7.205c0.033,0.866,0.29,1.542,0.77,2.029c0.48,0.487,1.152,0.729,2.019,0.729    c0.673,0,1.31-0.07,1.909-0.21c0.6-0.14,1.226-0.363,1.879-0.669v2.358c-0.533,0.267-1.104,0.465-1.709,0.595    C101.115,15.686,100.375,15.75,99.503,15.75z M99.073,6.336c-0.646,0-1.153,0.205-1.52,0.615c-0.366,0.41-0.576,0.991-0.63,1.744    h4.277c-0.013-0.753-0.209-1.334-0.589-1.744C100.232,6.541,99.719,6.336,99.073,6.336z"/>
		<path fill="#286EA2" d="M112.774,4.167c0.413,0,0.757,0.03,1.029,0.09l-0.229,2.858c-0.246-0.066-0.546-0.1-0.899-0.1    c-0.973,0-1.73,0.25-2.273,0.75s-0.814,1.199-0.814,2.099v5.687h-3.049V4.377h2.309l0.45,1.879h0.149    c0.347-0.626,0.815-1.131,1.404-1.514C111.44,4.359,112.082,4.167,112.774,4.167z"/>
		<path fill="#286EA2" d="M126.146,15.551h-3.049V9.025c0-0.806-0.143-1.411-0.43-1.814c-0.286-0.403-0.742-0.605-1.369-0.605    c-0.853,0-1.469,0.285-1.849,0.854c-0.38,0.57-0.569,1.514-0.569,2.833v5.257h-3.049V4.377h2.329l0.409,1.429h0.17    c0.34-0.54,0.809-0.948,1.404-1.224c0.597-0.276,1.274-0.415,2.034-0.415c1.299,0,2.285,0.352,2.958,1.055    c0.673,0.703,1.01,1.717,1.01,3.043L126.146,15.551L126.146,15.551z"/>
		<path fill="#286EA2" d="M137.939,9.944v5.606h-3.099V0.939h4.258c1.985,0,3.454,0.362,4.407,1.084    c0.952,0.723,1.429,1.821,1.429,3.293c0,0.859-0.236,1.624-0.709,2.293c-0.474,0.67-1.144,1.194-2.009,1.574    c2.198,3.285,3.631,5.407,4.297,6.366h-3.438l-3.488-5.606L137.939,9.944L137.939,9.944z M137.939,7.426h0.999    c0.979,0,1.702-0.163,2.169-0.49c0.466-0.327,0.699-0.839,0.699-1.539c0-0.693-0.238-1.186-0.715-1.479    c-0.477-0.293-1.214-0.44-2.213-0.44h-0.939V7.426L137.939,7.426z"/>
		<path fill="#286EA2" d="M153.17,15.75c-1.799,0-3.205-0.496-4.218-1.489c-1.013-0.993-1.519-2.399-1.519-4.218    c0-1.872,0.468-3.319,1.403-4.342c0.937-1.022,2.23-1.534,3.883-1.534c1.579,0,2.809,0.45,3.688,1.349    c0.879,0.9,1.318,2.143,1.318,3.728v1.479h-7.205c0.033,0.866,0.29,1.542,0.77,2.029c0.48,0.487,1.152,0.729,2.019,0.729    c0.673,0,1.31-0.07,1.909-0.21c0.6-0.14,1.226-0.363,1.879-0.669v2.358c-0.533,0.267-1.104,0.465-1.709,0.595    C154.782,15.686,154.042,15.75,153.17,15.75z M152.74,6.336c-0.646,0-1.153,0.205-1.52,0.615c-0.366,0.41-0.576,0.991-0.63,1.744    h4.277c-0.013-0.753-0.209-1.334-0.589-1.744C153.899,6.541,153.386,6.336,152.74,6.336z"/>
		<path fill="#286EA2" d="M164.743,15.75c-3.479,0-5.217-1.909-5.217-5.727c0-1.899,0.473-3.35,1.419-4.352    c0.945-1.003,2.302-1.504,4.067-1.504c1.292,0,2.452,0.253,3.478,0.76l-0.899,2.358c-0.479-0.193-0.926-0.351-1.339-0.475    c-0.413-0.123-0.826-0.185-1.239-0.185c-1.586,0-2.379,1.126-2.379,3.378c0,2.186,0.793,3.278,2.379,3.278    c0.586,0,1.129-0.078,1.629-0.235c0.5-0.157,0.999-0.401,1.499-0.735v2.609c-0.493,0.313-0.991,0.529-1.494,0.649    C166.144,15.689,165.509,15.75,164.743,15.75z"/>
		<path fill="#286EA2" d="M180.884,9.944c0,1.819-0.479,3.241-1.439,4.267c-0.959,1.026-2.295,1.539-4.007,1.539    c-1.073,0-2.02-0.235-2.839-0.705c-0.819-0.47-1.449-1.144-1.889-2.023s-0.659-1.906-0.659-3.078c0-1.826,0.476-3.245,1.429-4.258    s2.292-1.519,4.018-1.519c1.072,0,2.019,0.233,2.838,0.7c0.82,0.466,1.449,1.136,1.89,2.009    C180.664,7.749,180.884,8.771,180.884,9.944z M173.158,9.944c0,1.106,0.182,1.942,0.545,2.508c0.363,0.566,0.954,0.85,1.773,0.85    c0.813,0,1.397-0.282,1.755-0.845c0.355-0.563,0.534-1.4,0.534-2.513c0-1.106-0.18-1.936-0.54-2.489    c-0.359-0.553-0.949-0.83-1.769-0.83c-0.812,0-1.399,0.275-1.759,0.825C173.338,8,173.158,8.832,173.158,9.944z"/>
		<path fill="#286EA2" d="M193.126,4.377v1.549l-1.749,0.45c0.32,0.5,0.479,1.059,0.479,1.679c0,1.199-0.418,2.134-1.254,2.803    c-0.836,0.67-1.997,1.004-3.483,1.004l-0.549-0.03l-0.45-0.05c-0.313,0.24-0.47,0.506-0.47,0.799c0,0.44,0.56,0.66,1.679,0.66    h1.899c1.226,0,2.16,0.263,2.803,0.79c0.644,0.526,0.965,1.299,0.965,2.318c0,1.306-0.545,2.319-1.634,3.039    c-1.09,0.719-2.653,1.079-4.692,1.079c-1.56,0-2.75-0.271-3.573-0.814c-0.822-0.543-1.234-1.304-1.234-2.284    c0-0.673,0.21-1.236,0.63-1.689c0.42-0.453,1.036-0.776,1.849-0.969c-0.312-0.133-0.586-0.352-0.819-0.655    c-0.233-0.303-0.35-0.625-0.35-0.964c0-0.426,0.123-0.781,0.37-1.064c0.246-0.283,0.603-0.561,1.069-0.834    c-0.587-0.253-1.052-0.66-1.395-1.219c-0.343-0.559-0.515-1.219-0.515-1.979c0-1.219,0.396-2.162,1.189-2.828s1.925-1,3.397-1    c0.313,0,0.685,0.028,1.114,0.085c0.431,0.057,0.705,0.099,0.825,0.125L193.126,4.377L193.126,4.377z M184.501,17.13    c0,0.42,0.201,0.75,0.604,0.989c0.403,0.239,0.968,0.36,1.694,0.36c1.093,0,1.949-0.15,2.568-0.45c0.62-0.3,0.93-0.709,0.93-1.229    c0-0.419-0.184-0.709-0.55-0.869c-0.366-0.16-0.933-0.24-1.699-0.24h-1.579c-0.56,0-1.027,0.131-1.404,0.395    C184.689,16.349,184.501,16.697,184.501,17.13z M185.61,8.035c0,0.606,0.139,1.086,0.415,1.439s0.697,0.529,1.264,0.529    c0.573,0,0.993-0.176,1.26-0.529c0.267-0.353,0.399-0.833,0.399-1.439c0-1.346-0.553-2.019-1.659-2.019    C186.17,6.017,185.61,6.689,185.61,8.035z"/>
		<path fill="#286EA2" d="M205.279,15.551h-3.049V9.025c0-0.806-0.143-1.411-0.43-1.814c-0.286-0.403-0.742-0.605-1.369-0.605    c-0.853,0-1.469,0.285-1.849,0.854c-0.38,0.57-0.569,1.514-0.569,2.833v5.257h-3.049V4.377h2.329l0.409,1.429h0.17    c0.34-0.54,0.809-0.948,1.404-1.224c0.597-0.276,1.274-0.415,2.034-0.415c1.299,0,2.285,0.352,2.958,1.055    c0.673,0.703,1.01,1.717,1.01,3.043L205.279,15.551L205.279,15.551z"/>
		<path fill="#286EA2" d="M208.287,1.489c0-0.993,0.554-1.489,1.658-1.489c1.106,0,1.66,0.497,1.66,1.489    c0,0.473-0.14,0.841-0.416,1.104c-0.275,0.263-0.69,0.395-1.244,0.395C208.841,2.988,208.287,2.489,208.287,1.489z     M211.466,15.551h-3.049V4.377h3.049V15.551z"/>
		<path fill="#286EA2" d="M219.371,13.322c0.531,0,1.172-0.117,1.918-0.35v2.269c-0.76,0.339-1.691,0.509-2.798,0.509    c-1.22,0-2.107-0.308-2.663-0.924c-0.557-0.616-0.835-1.541-0.835-2.773V6.666h-1.459V5.377l1.679-1.02l0.88-2.358h1.948v2.378    h3.129v2.289h-3.129v5.387c0,0.433,0.122,0.753,0.365,0.959C218.648,13.218,218.971,13.322,219.371,13.322z"/>
		<path fill="#286EA2" d="M223.418,1.489c0-0.993,0.555-1.489,1.659-1.489c1.106,0,1.659,0.497,1.659,1.489    c0,0.473-0.139,0.841-0.416,1.104c-0.275,0.263-0.69,0.395-1.243,0.395C223.973,2.988,223.418,2.489,223.418,1.489z     M226.598,15.551h-3.05V4.377h3.05V15.551z"/>
		<path fill="#286EA2" d="M239.948,9.944c0,1.819-0.479,3.241-1.439,4.267c-0.959,1.026-2.295,1.539-4.007,1.539    c-1.072,0-2.02-0.235-2.839-0.705c-0.819-0.47-1.449-1.144-1.89-2.023c-0.439-0.879-0.658-1.906-0.658-3.078    c0-1.826,0.476-3.245,1.429-4.258s2.292-1.519,4.019-1.519c1.071,0,2.019,0.233,2.838,0.7c0.82,0.466,1.449,1.136,1.89,2.009    C239.729,7.749,239.948,8.771,239.948,9.944z M232.223,9.944c0,1.106,0.183,1.942,0.545,2.508c0.363,0.566,0.955,0.85,1.773,0.85    c0.812,0,1.396-0.282,1.755-0.845c0.354-0.563,0.534-1.4,0.534-2.513c0-1.106-0.18-1.936-0.54-2.489    c-0.358-0.553-0.949-0.83-1.769-0.83c-0.812,0-1.399,0.275-1.76,0.825C232.402,8,232.223,8.832,232.223,9.944z"/>
		<path fill="#286EA2" d="M252.779,15.551h-3.049V9.025c0-0.806-0.143-1.411-0.43-1.814c-0.285-0.403-0.742-0.605-1.369-0.605    c-0.853,0-1.469,0.285-1.849,0.854c-0.38,0.57-0.569,1.514-0.569,2.833v5.257h-3.049V4.377h2.329l0.409,1.429h0.17    c0.34-0.54,0.809-0.948,1.404-1.224c0.597-0.276,1.273-0.415,2.033-0.415c1.299,0,2.285,0.352,2.959,1.055    c0.672,0.703,1.01,1.717,1.01,3.043V15.551L252.779,15.551z"/>
		<path fill="#286EA2" d="M268.33,15.551l-0.589-1.519h-0.08c-0.515,0.646-1.041,1.094-1.584,1.344s-1.251,0.375-2.124,0.375    c-1.073,0-1.917-0.306-2.533-0.919c-0.615-0.613-0.925-1.485-0.925-2.618c0-1.186,0.415-2.061,1.244-2.624    s2.079-0.875,3.753-0.935l1.938-0.061v-0.49c0-1.133-0.578-1.699-1.738-1.699c-0.894,0-1.941,0.27-3.147,0.81l-1.01-2.059    c1.286-0.673,2.712-1.01,4.278-1.01c1.498,0,2.646,0.327,3.446,0.979c0.8,0.653,1.199,1.646,1.199,2.979v7.445L268.33,15.551    L268.33,15.551z M267.432,10.374l-1.18,0.04c-0.887,0.026-1.546,0.187-1.979,0.479c-0.435,0.293-0.65,0.74-0.65,1.339    c0,0.859,0.493,1.289,1.479,1.289c0.707,0,1.271-0.203,1.694-0.609c0.423-0.407,0.634-0.946,0.634-1.619v-0.919H267.432z"/>
		<path fill="#286EA2" d="M283.912,15.551h-3.049V9.025c0-0.806-0.144-1.411-0.43-1.814c-0.287-0.403-0.742-0.605-1.369-0.605    c-0.854,0-1.47,0.285-1.85,0.854c-0.38,0.57-0.568,1.514-0.568,2.833v5.257h-3.049V4.377h2.328l0.409,1.429h0.17    c0.34-0.54,0.81-0.948,1.404-1.224c0.597-0.276,1.274-0.415,2.034-0.415c1.299,0,2.285,0.352,2.957,1.055    c0.674,0.703,1.011,1.717,1.011,3.043L283.912,15.551L283.912,15.551z"/>
		<path fill="#286EA2" d="M290.587,15.75c-1.312,0-2.344-0.509-3.093-1.529c-0.75-1.02-1.124-2.432-1.124-4.238    c0-1.832,0.381-3.259,1.144-4.282c0.764-1.022,1.814-1.534,3.153-1.534c1.406,0,2.479,0.546,3.218,1.639h0.102    c-0.153-0.833-0.23-1.576-0.23-2.229V0h3.059v15.551h-2.338l-0.59-1.449h-0.131C293.062,15.201,292.006,15.75,290.587,15.75z     M291.656,13.322c0.779,0,1.351-0.228,1.714-0.68c0.362-0.453,0.562-1.223,0.595-2.309v-0.33c0-1.199-0.185-2.059-0.555-2.578    c-0.369-0.52-0.971-0.78-1.805-0.78c-0.68,0-1.207,0.289-1.584,0.865c-0.377,0.576-0.563,1.414-0.563,2.513    c0,1.1,0.188,1.924,0.569,2.474C290.407,13.047,290.95,13.322,291.656,13.322z"/>
	</g>
	<g>
		<path fill="#286EA2" d="M11.973,40.112H8.885v-6.306H3.099v6.306H0V25.501h3.099v5.727h5.786v-5.727h3.088V40.112L11.973,40.112z"/>
		<path fill="#286EA2" d="M23.336,40.112l-0.41-1.43h-0.16c-0.326,0.52-0.789,0.922-1.389,1.205s-1.283,0.424-2.049,0.424    c-1.312,0-2.302-0.352-2.969-1.055c-0.666-0.701-0.999-1.713-0.999-3.032v-7.286h3.048v6.527c0,0.806,0.144,1.41,0.43,1.812    c0.287,0.404,0.743,0.604,1.369,0.604c0.854,0,1.47-0.284,1.85-0.854c0.38-0.568,0.569-1.515,0.569-2.833v-5.257h3.048v11.173    L23.336,40.112L23.336,40.112z"/>
		<path fill="#286EA2" d="M38.876,40.112h-3.048v-6.525c0-0.806-0.135-1.412-0.404-1.814c-0.271-0.403-0.695-0.605-1.274-0.605    c-0.779,0-1.346,0.287-1.699,0.86c-0.354,0.573-0.529,1.517-0.529,2.828v5.257h-3.049V28.939h2.329l0.409,1.429h0.17    c0.3-0.513,0.733-0.915,1.3-1.204c0.566-0.29,1.216-0.435,1.948-0.435c1.673,0,2.806,0.546,3.398,1.639h0.27    c0.3-0.52,0.741-0.923,1.324-1.209c0.583-0.286,1.241-0.43,1.974-0.43c1.267,0,2.224,0.325,2.874,0.975    c0.649,0.649,0.974,1.69,0.974,3.123v7.286h-3.058v-6.526c0-0.805-0.135-1.411-0.405-1.813s-0.694-0.605-1.273-0.605    c-0.747,0-1.305,0.267-1.675,0.8c-0.369,0.533-0.555,1.379-0.555,2.539L38.876,40.112L38.876,40.112z"/>
		<path fill="#286EA2" d="M56.065,40.112l-0.589-1.52h-0.08c-0.514,0.646-1.041,1.095-1.584,1.345s-1.251,0.374-2.124,0.374    c-1.073,0-1.917-0.307-2.533-0.919c-0.616-0.612-0.925-1.485-0.925-2.618c0-1.186,0.415-2.061,1.244-2.624    c0.83-0.563,2.08-0.875,3.753-0.935l1.938-0.061v-0.489c0-1.133-0.579-1.699-1.738-1.699c-0.894,0-1.942,0.27-3.148,0.81    l-1.01-2.059c1.286-0.673,2.712-1.01,4.278-1.01c1.499,0,2.647,0.327,3.447,0.979c0.8,0.653,1.199,1.646,1.199,2.979v7.445    L56.065,40.112L56.065,40.112z M55.166,34.936l-1.179,0.04c-0.887,0.026-1.546,0.187-1.979,0.479    c-0.434,0.293-0.65,0.738-0.65,1.338c0,0.859,0.493,1.289,1.479,1.289c0.706,0,1.271-0.203,1.694-0.608    c0.423-0.406,0.634-0.945,0.634-1.619L55.166,34.936L55.166,34.936z"/>
		<path fill="#286EA2" d="M71.647,40.112h-3.049v-6.525c0-0.806-0.143-1.412-0.43-1.814c-0.286-0.403-0.742-0.605-1.369-0.605    c-0.853,0-1.469,0.285-1.849,0.854c-0.38,0.57-0.569,1.515-0.569,2.833v5.257h-3.049V28.939h2.329l0.409,1.429h0.17    c0.34-0.54,0.809-0.948,1.404-1.224c0.597-0.276,1.274-0.415,2.034-0.415c1.299,0,2.285,0.352,2.958,1.055    c0.673,0.703,1.01,1.717,1.01,3.043L71.647,40.112L71.647,40.112z"/>
		<path fill="#286EA2" d="M80.342,40.112V25.501h3.099v12.053h5.926v2.559L80.342,40.112L80.342,40.112z"/>
		<path fill="#286EA2" d="M98.76,40.112l-0.589-1.52h-0.08c-0.514,0.646-1.041,1.095-1.584,1.345s-1.251,0.374-2.124,0.374    c-1.073,0-1.917-0.307-2.533-0.919c-0.616-0.612-0.925-1.485-0.925-2.618c0-1.186,0.415-2.061,1.244-2.624    c0.83-0.563,2.08-0.875,3.753-0.935l1.938-0.061v-0.489c0-1.133-0.579-1.699-1.738-1.699c-0.894,0-1.942,0.27-3.148,0.81    l-1.01-2.059c1.286-0.673,2.712-1.01,4.278-1.01c1.499,0,2.647,0.327,3.447,0.979c0.8,0.653,1.199,1.646,1.199,2.979v7.445    L98.76,40.112L98.76,40.112z M97.86,34.936l-1.179,0.04c-0.887,0.026-1.546,0.187-1.979,0.479c-0.434,0.293-0.65,0.738-0.65,1.338    c0,0.859,0.493,1.289,1.479,1.289c0.706,0,1.271-0.203,1.694-0.608c0.423-0.406,0.634-0.945,0.634-1.619L97.86,34.936    L97.86,34.936z"/>
		<path fill="#286EA2" d="M114.342,40.112h-3.049v-6.525c0-0.806-0.143-1.412-0.43-1.814c-0.286-0.403-0.742-0.605-1.369-0.605    c-0.853,0-1.469,0.285-1.849,0.854c-0.38,0.57-0.569,1.515-0.569,2.833v5.257h-3.049V28.939h2.329l0.409,1.429h0.17    c0.34-0.54,0.809-0.948,1.404-1.224c0.597-0.276,1.274-0.415,2.034-0.415c1.299,0,2.285,0.352,2.958,1.055    c0.673,0.703,1.01,1.717,1.01,3.043L114.342,40.112L114.342,40.112z"/>
		<path fill="#286EA2" d="M127.203,28.939v1.549l-1.749,0.45c0.32,0.5,0.479,1.059,0.479,1.679c0,1.199-0.418,2.133-1.254,2.803    c-0.836,0.67-1.997,1.004-3.483,1.004l-0.549-0.029l-0.45-0.05c-0.313,0.239-0.47,0.506-0.47,0.799c0,0.44,0.56,0.66,1.679,0.66    h1.899c1.226,0,2.16,0.264,2.803,0.788c0.644,0.527,0.965,1.301,0.965,2.318c0,1.307-0.545,2.319-1.634,3.039    c-1.09,0.719-2.653,1.079-4.692,1.079c-1.56,0-2.75-0.271-3.573-0.813c-0.822-0.543-1.234-1.305-1.234-2.284    c0-0.673,0.21-1.235,0.63-1.688c0.42-0.453,1.036-0.775,1.849-0.97c-0.312-0.133-0.586-0.353-0.819-0.653    c-0.233-0.303-0.35-0.625-0.35-0.966c0-0.426,0.123-0.78,0.37-1.063c0.246-0.283,0.603-0.562,1.069-0.834    c-0.587-0.254-1.052-0.66-1.395-1.219c-0.343-0.561-0.515-1.221-0.515-1.979c0-1.219,0.396-2.162,1.189-2.828s1.925-1,3.397-1    c0.313,0,0.685,0.028,1.114,0.085c0.431,0.057,0.705,0.099,0.825,0.125L127.203,28.939L127.203,28.939z M118.578,41.691    c0,0.42,0.201,0.749,0.604,0.989c0.403,0.24,0.968,0.359,1.694,0.359c1.093,0,1.949-0.149,2.568-0.449    c0.62-0.301,0.93-0.709,0.93-1.229c0-0.419-0.184-0.71-0.55-0.868c-0.366-0.16-0.933-0.24-1.699-0.24h-1.579    c-0.56,0-1.027,0.131-1.404,0.396C118.767,40.911,118.578,41.258,118.578,41.691z M119.688,32.597    c0,0.606,0.139,1.086,0.415,1.438c0.276,0.354,0.697,0.529,1.264,0.529c0.573,0,0.993-0.176,1.26-0.529    c0.267-0.353,0.399-0.832,0.399-1.438c0-1.346-0.553-2.019-1.659-2.019C120.247,30.578,119.688,31.251,119.688,32.597z"/>
		<path fill="#286EA2" d="M136.958,40.112l-0.41-1.43h-0.16c-0.326,0.52-0.789,0.922-1.389,1.205s-1.283,0.424-2.049,0.424    c-1.312,0-2.302-0.352-2.969-1.055c-0.666-0.701-0.999-1.713-0.999-3.032v-7.286h3.048v6.527c0,0.806,0.144,1.41,0.43,1.812    c0.287,0.404,0.743,0.604,1.369,0.604c0.854,0,1.47-0.284,1.85-0.854c0.38-0.568,0.569-1.515,0.569-2.833v-5.257h3.048v11.173    L136.958,40.112L136.958,40.112z"/>
		<path fill="#286EA2" d="M149.59,40.112l-0.589-1.52h-0.08c-0.514,0.646-1.041,1.095-1.584,1.345s-1.251,0.374-2.124,0.374    c-1.073,0-1.917-0.307-2.533-0.919c-0.616-0.612-0.925-1.485-0.925-2.618c0-1.186,0.415-2.061,1.244-2.624    c0.83-0.563,2.08-0.875,3.753-0.935l1.938-0.061v-0.489c0-1.133-0.579-1.699-1.738-1.699c-0.894,0-1.942,0.27-3.148,0.81    l-1.01-2.059c1.286-0.673,2.712-1.01,4.278-1.01c1.499,0,2.646,0.327,3.447,0.979c0.8,0.653,1.199,1.646,1.199,2.979v7.445    L149.59,40.112L149.59,40.112z M148.69,34.936l-1.179,0.04c-0.887,0.026-1.546,0.187-1.979,0.479    c-0.434,0.293-0.65,0.738-0.65,1.338c0,0.859,0.493,1.289,1.479,1.289c0.706,0,1.271-0.203,1.694-0.608    c0.423-0.406,0.634-0.945,0.634-1.619L148.69,34.936L148.69,34.936z"/>
		<path fill="#286EA2" d="M164.581,28.939v1.549l-1.749,0.45c0.32,0.5,0.479,1.059,0.479,1.679c0,1.199-0.418,2.133-1.254,2.803    s-1.997,1.004-3.483,1.004l-0.549-0.029l-0.45-0.05c-0.313,0.239-0.47,0.506-0.47,0.799c0,0.44,0.56,0.66,1.679,0.66h1.899    c1.226,0,2.16,0.264,2.803,0.788c0.644,0.527,0.965,1.301,0.965,2.318c0,1.307-0.545,2.319-1.634,3.039    c-1.09,0.719-2.653,1.079-4.692,1.079c-1.56,0-2.75-0.271-3.573-0.813c-0.822-0.543-1.234-1.305-1.234-2.284    c0-0.673,0.21-1.235,0.63-1.688c0.42-0.453,1.036-0.775,1.849-0.97c-0.312-0.133-0.586-0.353-0.819-0.653    c-0.233-0.303-0.35-0.625-0.35-0.966c0-0.426,0.123-0.78,0.37-1.063c0.246-0.283,0.603-0.562,1.069-0.834    c-0.587-0.254-1.052-0.66-1.395-1.219c-0.343-0.561-0.515-1.221-0.515-1.979c0-1.219,0.396-2.162,1.189-2.828    c0.793-0.666,1.925-1,3.397-1c0.313,0,0.685,0.028,1.114,0.085c0.431,0.057,0.705,0.099,0.825,0.125L164.581,28.939    L164.581,28.939z M155.956,41.691c0,0.42,0.201,0.749,0.604,0.989s0.968,0.359,1.694,0.359c1.093,0,1.949-0.149,2.568-0.449    c0.62-0.301,0.93-0.709,0.93-1.229c0-0.419-0.184-0.71-0.55-0.868c-0.366-0.16-0.933-0.24-1.699-0.24h-1.579    c-0.56,0-1.027,0.131-1.404,0.396C156.145,40.911,155.956,41.258,155.956,41.691z M157.065,32.597    c0,0.606,0.139,1.086,0.415,1.438c0.276,0.354,0.697,0.529,1.264,0.529c0.573,0,0.993-0.176,1.26-0.529    c0.267-0.353,0.399-0.832,0.399-1.438c0-1.346-0.553-2.019-1.659-2.019C157.625,30.578,157.065,31.251,157.065,32.597z"/>
		<path fill="#286EA2" d="M171.478,40.312c-1.799,0-3.205-0.496-4.218-1.487c-1.013-0.992-1.519-2.398-1.519-4.219    c0-1.872,0.468-3.319,1.403-4.342c0.937-1.022,2.23-1.534,3.883-1.534c1.579,0,2.809,0.45,3.688,1.349    c0.879,0.9,1.318,2.143,1.318,3.728v1.479h-7.205c0.033,0.866,0.29,1.543,0.77,2.028s1.152,0.729,2.019,0.729    c0.673,0,1.31-0.069,1.909-0.211c0.6-0.139,1.226-0.361,1.879-0.668v2.357c-0.533,0.268-1.104,0.465-1.709,0.596    C173.09,40.247,172.35,40.312,171.478,40.312z M171.048,30.898c-0.646,0-1.153,0.205-1.52,0.615    c-0.366,0.41-0.576,0.991-0.63,1.743h4.277c-0.013-0.752-0.209-1.333-0.589-1.743C172.207,31.103,171.693,30.898,171.048,30.898z"/>
		<path fill="#286EA2" d="M189.706,40.112h-3.099V28.08h-3.967v-2.579h11.033v2.579h-3.968L189.706,40.112L189.706,40.112z"/>
		<path fill="#286EA2" d="M200.739,40.312c-1.799,0-3.205-0.496-4.218-1.487c-1.013-0.992-1.519-2.398-1.519-4.219    c0-1.872,0.468-3.319,1.403-4.342c0.937-1.022,2.23-1.534,3.883-1.534c1.579,0,2.809,0.45,3.688,1.349    c0.879,0.9,1.318,2.143,1.318,3.728v1.479h-7.205c0.033,0.866,0.29,1.543,0.77,2.028s1.152,0.729,2.019,0.729    c0.673,0,1.31-0.069,1.909-0.211c0.6-0.139,1.226-0.361,1.879-0.668v2.357c-0.533,0.268-1.104,0.465-1.709,0.596    C202.352,40.247,201.611,40.312,200.739,40.312z M200.31,30.898c-0.646,0-1.153,0.205-1.52,0.615    c-0.366,0.41-0.576,0.991-0.63,1.743h4.277c-0.013-0.752-0.209-1.333-0.589-1.743C201.469,31.103,200.955,30.898,200.31,30.898z"/>
		<path fill="#286EA2" d="M212.312,40.312c-3.479,0-5.217-1.908-5.217-5.728c0-1.897,0.473-3.349,1.419-4.352    c0.945-1.003,2.302-1.504,4.067-1.504c1.292,0,2.452,0.253,3.478,0.76l-0.898,2.358c-0.479-0.193-0.926-0.351-1.34-0.475    c-0.412-0.123-0.825-0.185-1.238-0.185c-1.586,0-2.379,1.126-2.379,3.378c0,2.186,0.793,3.277,2.379,3.277    c0.586,0,1.129-0.077,1.629-0.234c0.5-0.156,0.999-0.4,1.499-0.734v2.609c-0.493,0.312-0.991,0.529-1.494,0.648    C213.713,40.252,213.078,40.312,212.312,40.312z"/>
		<path fill="#286EA2" d="M228.611,40.112h-3.049v-6.525c0-1.612-0.6-2.419-1.799-2.419c-0.853,0-1.469,0.29-1.849,0.87    s-0.569,1.519-0.569,2.818v5.257h-3.049v-15.55h3.049v3.168c0,0.246-0.022,0.826-0.07,1.739l-0.069,0.899h0.16    c0.68-1.093,1.759-1.639,3.237-1.639c1.312,0,2.31,0.354,2.988,1.06c0.68,0.706,1.02,1.719,1.02,3.038V40.112z"/>
		<path fill="#286EA2" d="M242.064,40.112h-3.049v-6.525c0-0.806-0.144-1.412-0.431-1.814c-0.286-0.403-0.742-0.605-1.369-0.605    c-0.853,0-1.469,0.285-1.849,0.854c-0.381,0.57-0.569,1.515-0.569,2.833v5.257h-3.049V28.939h2.329l0.408,1.429h0.171    c0.34-0.54,0.809-0.948,1.403-1.224c0.598-0.276,1.274-0.415,2.035-0.415c1.299,0,2.284,0.352,2.957,1.055    c0.674,0.703,1.01,1.717,1.01,3.043v7.285H242.064z"/>
		<path fill="#286EA2" d="M255.355,34.506c0,1.818-0.479,3.24-1.438,4.267c-0.959,1.026-2.295,1.539-4.007,1.539    c-1.073,0-2.02-0.233-2.84-0.704c-0.818-0.47-1.448-1.145-1.889-2.023c-0.439-0.879-0.658-1.904-0.658-3.078    c0-1.825,0.476-3.244,1.429-4.257c0.952-1.013,2.292-1.519,4.019-1.519c1.071,0,2.019,0.233,2.838,0.7    c0.819,0.466,1.448,1.136,1.89,2.009C255.137,32.311,255.355,33.333,255.355,34.506z M247.631,34.506    c0,1.105,0.182,1.941,0.545,2.509s0.954,0.851,1.773,0.851c0.812,0,1.396-0.283,1.755-0.847c0.354-0.562,0.534-1.399,0.534-2.513    c0-1.106-0.18-1.937-0.54-2.489c-0.359-0.553-0.949-0.83-1.769-0.83c-0.812,0-1.4,0.275-1.76,0.825    C247.811,32.562,247.631,33.393,247.631,34.506z"/>
		<path fill="#286EA2" d="M260.923,40.112h-3.049v-15.55h3.049V40.112z"/>
		<path fill="#286EA2" d="M274.275,34.506c0,1.818-0.479,3.24-1.439,4.267c-0.959,1.026-2.295,1.539-4.007,1.539    c-1.073,0-2.021-0.233-2.839-0.704c-0.819-0.47-1.449-1.145-1.889-2.023c-0.44-0.879-0.66-1.904-0.66-3.078    c0-1.825,0.477-3.244,1.43-4.257s2.292-1.519,4.018-1.519c1.072,0,2.02,0.233,2.838,0.7c0.82,0.466,1.449,1.136,1.891,2.009    C274.057,32.311,274.275,33.333,274.275,34.506z M266.55,34.506c0,1.105,0.183,1.941,0.546,2.509    c0.362,0.567,0.953,0.851,1.772,0.851c0.813,0,1.397-0.283,1.755-0.847c0.355-0.562,0.534-1.399,0.534-2.513    c0-1.106-0.181-1.937-0.54-2.489c-0.359-0.553-0.949-0.83-1.77-0.83c-0.812,0-1.398,0.275-1.759,0.825    C266.729,32.562,266.55,33.393,266.55,34.506z"/>
		<path fill="#286EA2" d="M286.518,28.939v1.549l-1.748,0.45c0.319,0.5,0.479,1.059,0.479,1.679c0,1.199-0.418,2.133-1.254,2.803    s-1.997,1.004-3.483,1.004l-0.549-0.029l-0.45-0.05c-0.312,0.239-0.47,0.506-0.47,0.799c0,0.44,0.56,0.66,1.679,0.66h1.899    c1.226,0,2.159,0.264,2.803,0.788c0.644,0.527,0.965,1.301,0.965,2.318c0,1.307-0.545,2.319-1.634,3.039    c-1.09,0.719-2.652,1.079-4.691,1.079c-1.561,0-2.75-0.271-3.573-0.813c-0.822-0.543-1.234-1.305-1.234-2.284    c0-0.673,0.21-1.235,0.63-1.688s1.036-0.775,1.85-0.97c-0.312-0.133-0.586-0.353-0.819-0.653    c-0.233-0.303-0.351-0.625-0.351-0.966c0-0.426,0.123-0.78,0.371-1.063c0.246-0.283,0.603-0.562,1.068-0.834    c-0.587-0.254-1.052-0.66-1.395-1.219c-0.344-0.561-0.516-1.221-0.516-1.979c0-1.219,0.396-2.162,1.189-2.828s1.925-1,3.396-1    c0.313,0,0.686,0.028,1.114,0.085c0.431,0.057,0.705,0.099,0.825,0.125L286.518,28.939L286.518,28.939z M277.893,41.691    c0,0.42,0.201,0.749,0.604,0.989s0.968,0.359,1.694,0.359c1.093,0,1.949-0.149,2.567-0.449c0.62-0.301,0.931-0.709,0.931-1.229    c0-0.419-0.185-0.71-0.551-0.868c-0.365-0.16-0.933-0.24-1.699-0.24h-1.578c-0.561,0-1.027,0.131-1.404,0.396    C278.081,40.911,277.893,41.258,277.893,41.691z M279.002,32.597c0,0.606,0.139,1.086,0.415,1.438    c0.276,0.354,0.697,0.529,1.265,0.529c0.572,0,0.992-0.176,1.26-0.529c0.267-0.353,0.398-0.832,0.398-1.438    c0-1.346-0.553-2.019-1.658-2.019C279.562,30.578,279.002,31.251,279.002,32.597z"/>
		<path fill="#286EA2" d="M286.758,28.939h3.338l2.108,6.287c0.181,0.546,0.304,1.192,0.37,1.938h0.061    c0.072-0.688,0.217-1.334,0.43-1.938l2.068-6.287h3.268l-4.727,12.603c-0.434,1.166-1.051,2.039-1.854,2.617    c-0.803,0.58-1.74,0.87-2.812,0.87c-0.525,0-1.043-0.057-1.55-0.17V42.44c0.367,0.087,0.767,0.131,1.199,0.131    c0.54,0,1.012-0.166,1.415-0.494c0.402-0.33,0.718-0.828,0.943-1.494l0.181-0.551L286.758,28.939z"/>
	</g>
	<g>
		<path fill="#4D4D4D" d="M161.356,60.065v4.721h-2.608V52.481h3.585c1.672,0,2.909,0.305,3.712,0.914    c0.802,0.607,1.203,1.533,1.203,2.771c0,0.725-0.199,1.369-0.598,1.933s-0.962,1.006-1.691,1.325    c1.852,2.767,3.058,4.553,3.619,5.361h-2.896l-2.938-4.722L161.356,60.065L161.356,60.065z M161.356,57.944h0.842    c0.825,0,1.434-0.138,1.826-0.412c0.393-0.275,0.589-0.707,0.589-1.297c0-0.584-0.2-0.998-0.602-1.246    c-0.401-0.246-1.021-0.369-1.864-0.369h-0.791V57.944z"/>
		<path fill="#4D4D4D" d="M174.184,64.954c-1.516,0-2.699-0.418-3.552-1.254c-0.854-0.836-1.279-2.02-1.279-3.551    c0-1.576,0.394-2.796,1.183-3.656c0.788-0.861,1.878-1.293,3.27-1.293c1.329,0,2.364,0.379,3.105,1.137    c0.74,0.758,1.11,1.804,1.11,3.14v1.246h-6.067c0.027,0.729,0.244,1.299,0.647,1.708c0.404,0.408,0.971,0.613,1.7,0.613    c0.566,0,1.103-0.059,1.607-0.176c0.504-0.119,1.032-0.307,1.582-0.563v1.985c-0.448,0.226-0.928,0.392-1.438,0.5    C175.542,64.899,174.918,64.954,174.184,64.954z M173.821,57.026c-0.544,0-0.971,0.174-1.279,0.518    c-0.309,0.347-0.485,0.836-0.53,1.47h3.603c-0.012-0.634-0.177-1.123-0.497-1.47C174.798,57.2,174.365,57.026,173.821,57.026z"/>
		<path fill="#4D4D4D" d="M186.672,61.993c0,0.965-0.335,1.699-1.006,2.203c-0.671,0.506-1.674,0.758-3.009,0.758    c-0.685,0-1.268-0.045-1.75-0.139c-0.483-0.092-0.935-0.229-1.355-0.408v-2.121c0.477,0.225,1.015,0.412,1.611,0.564    c0.598,0.15,1.124,0.227,1.578,0.227c0.932,0,1.397-0.269,1.397-0.808c0-0.202-0.062-0.366-0.186-0.492    c-0.123-0.126-0.336-0.269-0.64-0.429c-0.303-0.16-0.707-0.348-1.212-0.561c-0.724-0.304-1.255-0.584-1.595-0.843    c-0.339-0.258-0.586-0.553-0.74-0.887c-0.154-0.334-0.231-0.745-0.231-1.233c0-0.836,0.324-1.482,0.972-1.939    s1.567-0.686,2.757-0.686c1.133,0,2.235,0.246,3.308,0.739l-0.774,1.853c-0.472-0.201-0.912-0.367-1.321-0.496    c-0.41-0.129-0.828-0.193-1.254-0.193c-0.758,0-1.137,0.205-1.137,0.613c0,0.229,0.122,0.43,0.366,0.599    c0.244,0.168,0.778,0.418,1.604,0.749c0.734,0.297,1.273,0.574,1.615,0.833c0.343,0.259,0.595,0.556,0.758,0.892    C186.591,61.125,186.672,61.526,186.672,61.993z"/>
		<path fill="#4D4D4D" d="M192.934,64.954c-1.516,0-2.699-0.418-3.552-1.254c-0.854-0.836-1.279-2.02-1.279-3.551    c0-1.576,0.394-2.796,1.183-3.656c0.788-0.861,1.878-1.293,3.27-1.293c1.329,0,2.364,0.379,3.105,1.137    c0.74,0.758,1.11,1.804,1.11,3.14v1.246h-6.067c0.027,0.729,0.244,1.299,0.647,1.708c0.404,0.408,0.971,0.613,1.7,0.613    c0.566,0,1.103-0.059,1.607-0.176c0.504-0.119,1.032-0.307,1.582-0.563v1.985c-0.448,0.226-0.928,0.392-1.438,0.5    C194.292,64.899,193.668,64.954,192.934,64.954z M192.571,57.026c-0.544,0-0.971,0.174-1.279,0.518    c-0.309,0.347-0.485,0.836-0.53,1.47h3.603c-0.012-0.634-0.177-1.123-0.497-1.47C193.548,57.2,193.115,57.026,192.571,57.026z"/>
		<path fill="#4D4D4D" d="M204.834,64.786l-0.497-1.279h-0.067c-0.432,0.545-0.876,0.923-1.334,1.133    c-0.457,0.21-1.053,0.314-1.788,0.314c-0.903,0-1.614-0.258-2.134-0.772c-0.519-0.517-0.778-1.252-0.778-2.205    c0-0.999,0.35-1.735,1.048-2.209c0.698-0.476,1.752-0.735,3.16-0.787l1.633-0.051v-0.412c0-0.954-0.488-1.433-1.464-1.433    c-0.752,0-1.636,0.229-2.651,0.683l-0.851-1.731c1.083-0.568,2.284-0.852,3.603-0.852c1.263,0,2.23,0.273,2.903,0.824    c0.674,0.55,1.01,1.386,1.01,2.509v6.271h-1.793V64.786z M204.076,60.426l-0.993,0.033c-0.746,0.023-1.302,0.158-1.666,0.404    c-0.365,0.247-0.547,0.623-0.547,1.129c0,0.723,0.415,1.084,1.245,1.084c0.595,0,1.07-0.17,1.427-0.513s0.534-0.797,0.534-1.364    V60.426z"/>
		<path fill="#4D4D4D" d="M214.521,55.2c0.348,0,0.637,0.025,0.865,0.076l-0.193,2.406c-0.207-0.057-0.459-0.084-0.758-0.084    c-0.818,0-1.457,0.211-1.914,0.631c-0.457,0.422-0.687,1.01-0.687,1.768v4.789h-2.565v-9.408h1.943l0.378,1.582h0.127    c0.291-0.526,0.687-0.953,1.183-1.274C213.396,55.362,213.938,55.2,214.521,55.2z"/>
		<path fill="#4D4D4D" d="M220.916,64.954c-2.93,0-4.393-1.606-4.393-4.822c0-1.598,0.397-2.819,1.194-3.664    c0.796-0.846,1.938-1.268,3.425-1.268c1.09,0,2.064,0.213,2.93,0.641l-0.758,1.986c-0.403-0.164-0.779-0.297-1.127-0.4    c-0.35-0.104-0.696-0.155-1.045-0.155c-1.334,0-2.002,0.948-2.002,2.845c0,1.842,0.668,2.762,2.002,2.762    c0.494,0,0.951-0.066,1.373-0.198c0.42-0.132,0.842-0.339,1.262-0.618v2.195c-0.416,0.265-0.834,0.447-1.258,0.548    C222.095,64.905,221.562,64.954,220.916,64.954z"/>
		<path fill="#4D4D4D" d="M234.645,64.786h-2.567V59.29c0-1.356-0.505-2.035-1.515-2.035c-0.72,0-1.237,0.244-1.558,0.73    c-0.319,0.488-0.479,1.279-0.479,2.374v4.427h-2.566V51.69h2.566v2.668c0,0.208-0.021,0.696-0.06,1.465l-0.059,0.758h0.135    c0.571-0.92,1.479-1.381,2.728-1.381c1.104,0,1.943,0.297,2.517,0.893c0.571,0.595,0.858,1.447,0.858,2.56V64.786z"/>
		<path fill="#4D4D4D" d="M247.191,54.477c-0.981,0-1.741,0.369-2.28,1.105c-0.539,0.738-0.808,1.767-0.808,3.084    c0,2.744,1.028,4.117,3.088,4.117c0.863,0,1.91-0.217,3.14-0.648v2.189c-1.011,0.42-2.138,0.631-3.383,0.631    c-1.79,0-3.159-0.543-4.107-1.629s-1.422-2.644-1.422-4.675c0-1.278,0.231-2.399,0.698-3.362c0.466-0.961,1.135-1.699,2.007-2.213    c0.873-0.515,1.896-0.771,3.067-0.771c1.195,0,2.396,0.289,3.603,0.866l-0.842,2.121c-0.46-0.219-0.923-0.41-1.39-0.572    C248.098,54.558,247.641,54.477,247.191,54.477z"/>
		<path fill="#4D4D4D" d="M257.005,64.954c-1.516,0-2.698-0.418-3.552-1.254s-1.279-2.02-1.279-3.551    c0-1.576,0.395-2.796,1.184-3.656c0.787-0.861,1.877-1.293,3.27-1.293c1.329,0,2.364,0.379,3.105,1.137    c0.74,0.758,1.109,1.804,1.109,3.14v1.246h-6.066c0.026,0.729,0.244,1.299,0.646,1.708c0.404,0.408,0.971,0.613,1.7,0.613    c0.565,0,1.103-0.059,1.606-0.176c0.504-0.119,1.032-0.307,1.582-0.563v1.985c-0.447,0.226-0.928,0.392-1.438,0.5    C258.363,64.899,257.739,64.954,257.005,64.954z M256.643,57.026c-0.543,0-0.971,0.174-1.278,0.518    c-0.31,0.347-0.485,0.836-0.53,1.47h3.604c-0.013-0.634-0.178-1.123-0.498-1.47C257.619,57.2,257.188,57.026,256.643,57.026z"/>
		<path fill="#4D4D4D" d="M271.615,64.786h-2.567V59.29c0-0.678-0.12-1.188-0.36-1.526c-0.242-0.341-0.627-0.509-1.153-0.509    c-0.72,0-1.237,0.238-1.558,0.72c-0.319,0.479-0.479,1.274-0.479,2.386v4.428h-2.565v-9.41h1.961l0.344,1.205h0.145    c0.286-0.455,0.68-0.799,1.184-1.031c0.502-0.232,1.071-0.35,1.711-0.35c1.096,0,1.926,0.295,2.492,0.889    c0.565,0.592,0.851,1.445,0.851,2.562v6.134H271.615z"/>
		<path fill="#4D4D4D" d="M278.223,62.909c0.448,0,0.986-0.098,1.615-0.295v1.911c-0.64,0.286-1.426,0.429-2.355,0.429    c-1.027,0-1.774-0.26-2.243-0.777c-0.47-0.518-0.703-1.299-0.703-2.336v-4.536h-1.229v-1.085l1.414-0.858l0.74-1.985h1.643v2.002    h2.633v1.928h-2.633v4.537c0,0.363,0.103,0.634,0.307,0.808C277.614,62.823,277.885,62.909,278.223,62.909z"/>
		<path fill="#4D4D4D" d="M285.998,64.954c-1.516,0-2.699-0.418-3.553-1.254s-1.278-2.02-1.278-3.551    c0-1.576,0.394-2.796,1.183-3.656c0.789-0.861,1.879-1.293,3.271-1.293c1.329,0,2.364,0.379,3.104,1.137s1.11,1.804,1.11,3.14    v1.246h-6.067c0.027,0.729,0.244,1.299,0.647,1.708c0.403,0.408,0.971,0.613,1.7,0.613c0.566,0,1.103-0.059,1.607-0.176    c0.504-0.119,1.031-0.307,1.582-0.563v1.985c-0.449,0.226-0.929,0.392-1.438,0.5C287.355,64.899,286.732,64.954,285.998,64.954z     M285.636,57.026c-0.544,0-0.971,0.174-1.278,0.518c-0.31,0.347-0.485,0.836-0.53,1.47h3.603c-0.012-0.634-0.177-1.123-0.496-1.47    C286.611,57.2,286.18,57.026,285.636,57.026z"/>
		<path fill="#4D4D4D" d="M297.175,55.2c0.349,0,0.638,0.025,0.866,0.076l-0.193,2.406c-0.207-0.057-0.459-0.084-0.758-0.084    c-0.818,0-1.457,0.211-1.914,0.631c-0.458,0.422-0.687,1.01-0.687,1.768v4.789h-2.566v-9.408h1.944l0.378,1.582h0.127    c0.291-0.526,0.687-0.953,1.183-1.274C296.051,55.362,296.591,55.2,297.175,55.2z"/>
	</g>
	<g>
		<path fill="#91B9D4" d="M370.613,2.724c-25.836,0-46.775,13.688-46.775,30.579c0,0.072,0.006,0.145,0.007,0.217    c5.923-12.703,24.617-21.981,46.77-21.981c22.153,0,40.854,9.28,46.772,21.987c0-0.074,0.008-0.148,0.008-0.223    C417.395,16.412,396.447,2.724,370.613,2.724z"/>
		<path fill="#91B9D4" d="M370.613,64.329c-25.836,0-46.775-13.688-46.775-30.58c0-0.072,0.006-0.145,0.007-0.217    c5.923,12.703,24.617,21.98,46.77,21.98c22.153,0,40.854-9.28,46.772-21.987c0,0.074,0.008,0.149,0.008,0.224    C417.395,50.641,396.447,64.329,370.613,64.329z"/>
		<path fill="#286EA0" d="M345.721,31.529c0-0.351-0.137-0.55-0.406-0.598h-4.764v1.962h3.854c0.7,0,1.096-0.048,1.184-0.144    C345.676,32.654,345.721,32.247,345.721,31.529z M350.219,33.084c0,0.861-0.184,1.498-0.551,1.914s-0.975,0.687-1.818,0.813    c-0.494,0.063-1.222,0.097-2.178,0.097h-5.121v3.852h-4.521V27.916h9.643c0.829,0,1.509,0.033,2.035,0.096    c0.907,0.127,1.556,0.39,1.937,0.789c0.385,0.4,0.576,1.045,0.576,1.939v2.344H350.219z"/>
		<path fill="#286EA0" d="M361.657,31.529c0-0.351-0.136-0.55-0.407-0.598h-4.762v1.962h3.854c0.701,0,1.096-0.048,1.186-0.144    C361.614,32.654,361.657,32.247,361.657,31.529z M366.155,39.76h-4.498v-3.038c0-0.542-0.438-0.812-1.315-0.812h-3.854v3.852    h-4.521V27.916h9.643c0.99,0,1.765,0.048,2.322,0.145c0.812,0.143,1.387,0.422,1.723,0.837c0.335,0.415,0.502,1.029,0.502,1.843    v2.343c0,0.576-0.303,1.021-0.909,1.34c0.606,0.238,0.909,0.67,0.909,1.291L366.155,39.76L366.155,39.76z"/>
		<polygon fill="#286EA0" points="382.118,27.916 382.118,39.76 377.596,39.76 377.596,35.334 372.451,35.334 372.451,39.76     367.905,39.76 367.905,27.916 372.451,27.916 372.451,32.319 377.596,32.319 377.596,27.916   "/>
		<polygon fill="#286EA0" points="394.539,36.745 394.539,39.76 383.867,39.76 383.867,27.869 388.413,27.869 388.413,36.745   "/>
		<polygon fill="#286EA0" points="405.203,30.907 400.729,30.907 400.729,39.76 396.205,39.76 396.205,30.907 392.091,30.907     392.091,27.869 405.203,27.869   "/>
	</g>
</g>
</svg>